<svg width="285" height="285" viewBox="0 0 285 285" fill="none" xmlns="http://www.w3.org/2000/svg">
<rect width="285" height="285" fill="black"/>
<path d="M206.374 127.916C215.796 123.402 230.466 124.802 240.373 136.099C244.915 141.277 241.401 148.769 234.864 150.937C231.712 151.983 228.856 153.754 226.188 155.731C225.886 155.955 225.578 156.18 225.266 156.403C217.034 162.311 211.735 171.16 211.208 181.28L210.965 185.95C210.983 187.582 210.952 189.222 210.866 190.863C208.458 213.903 193.593 233.759 172.166 242.563C153.451 250.252 132.459 250.252 113.744 242.563C92.3173 233.759 77.4527 213.903 75.0438 190.863L74.5454 181.28C74.0183 171.16 68.7199 162.311 60.487 156.403C60.1756 156.18 59.8679 155.955 59.5657 155.731C56.8971 153.754 54.0416 151.983 50.8894 150.937C44.3523 148.769 40.8388 141.277 45.3801 136.099C55.2877 124.802 69.9576 123.402 79.3796 127.916C82.7984 129.555 86.2189 131.193 89.7502 132.399L96.9714 134.865C109.239 138.731 121.347 137.168 133.232 133.468C139.412 130.368 145.794 130.858 152.117 133.468C164.624 138.63 175.519 138.616 188.768 134.956L188.782 134.865L196.004 132.399C199.536 131.193 202.955 129.554 206.374 127.916ZM142.735 153.212C132.653 153.212 123.486 157.651 116.085 162.975C108.66 168.318 102.736 174.75 99.0686 179.203C97.3489 181.29 95.4057 183.418 95.4056 186.606C95.4058 189.795 97.3489 191.924 99.0686 194.011C102.736 198.464 108.66 204.897 116.085 210.239C123.486 215.563 132.653 220.002 142.735 220.002C152.818 220.001 161.985 215.563 169.385 210.239C176.811 204.897 182.735 198.464 186.402 194.011C188.122 191.924 190.064 189.795 190.064 186.606C190.064 183.418 188.122 181.29 186.402 179.203C182.735 174.75 176.811 168.318 169.385 162.975C161.985 157.651 152.818 153.213 142.735 153.212ZM142.735 159.641C145.779 159.641 148.773 160.141 151.686 161.022C161.58 164.852 168.718 174.671 168.718 186.354C168.718 201.434 156.829 213.408 142.468 213.408C128.106 213.408 116.217 201.434 116.216 186.354C116.216 175.455 122.427 166.177 131.294 161.871C134.979 160.47 138.818 159.641 142.735 159.641ZM142.467 165.191C130.78 165.191 121.305 174.666 121.305 186.353C121.305 198.04 130.78 207.515 142.467 207.515C154.154 207.515 163.629 198.04 163.629 186.353C163.628 174.666 154.154 165.191 142.467 165.191ZM142.467 171.085C150.899 171.085 157.735 177.921 157.735 186.353C157.735 194.786 150.899 201.621 142.467 201.621C134.034 201.621 127.198 194.786 127.198 186.353C127.199 177.921 134.034 171.085 142.467 171.085ZM172.023 173.387C175.916 176.91 179.132 180.487 181.441 183.29C182.475 184.546 183.023 185.224 183.358 185.785C183.61 186.208 183.636 186.393 183.636 186.606C183.636 186.819 183.61 187.005 183.358 187.428C183.023 187.989 182.476 188.668 181.441 189.924C179.061 192.814 175.718 196.526 171.662 200.153C173.444 196.198 174.487 191.819 174.601 187.204L174.612 186.354C174.612 181.75 173.687 177.367 172.023 173.387ZM112.593 174.167C111.128 177.937 110.323 182.049 110.323 186.354L110.333 187.204C110.44 191.507 111.353 195.605 112.921 199.346C109.264 195.981 106.234 192.6 104.03 189.924C102.995 188.668 102.448 187.989 102.113 187.428C101.861 187.005 101.835 186.819 101.835 186.606C101.835 186.393 101.861 186.208 102.113 185.785C102.448 185.224 102.995 184.546 104.03 183.29C106.168 180.694 109.082 177.433 112.593 174.167ZM142.467 176.978C137.289 176.978 133.092 181.176 133.092 186.353C133.092 191.369 137.031 195.465 141.985 195.716L142.467 195.729C147.483 195.729 151.579 191.79 151.83 186.836L151.843 186.353C151.843 181.175 147.644 176.978 142.467 176.978ZM142.467 182.871C144.39 182.872 145.949 184.43 145.95 186.353C145.95 188.276 144.39 189.836 142.467 189.836C140.544 189.836 138.985 188.276 138.985 186.353C138.985 184.43 140.544 182.872 142.467 182.871ZM143.227 37.3299C153.317 37.33 161.496 45.5101 161.496 55.6003V101.145C161.496 102.906 162.924 104.335 164.685 104.335C166.434 104.334 167.857 102.925 167.874 101.176L168.233 63.532C168.233 61.6743 170.557 59.5927 172.112 59.1385C187.3 54.7002 201.256 62.9807 201.256 84.5041L202.221 123.848C185.857 132.201 170.112 133.92 152.059 128.309C145.169 124.931 140.206 125.527 133.107 128.305C115.204 132.327 99.9821 132.508 83.8309 124.203L84.8253 84.9071C84.8254 64.2013 96.9407 53.9439 114.465 59.1385C116.006 59.5953 118.22 61.6708 118.22 63.512L118.579 101.176C118.595 102.925 120.019 104.335 121.768 104.335C123.529 104.334 124.956 102.906 124.956 101.145V55.6003C124.956 45.51 133.136 37.3299 143.227 37.3299Z" fill="white"/>
</svg>
