<svg width="852" height="175" viewBox="0 0 852 175" fill="none" xmlns="http://www.w3.org/2000/svg">
<path d="M135.141 75.083C142.95 71.341 155.109 72.5019 163.321 81.8652C167.085 86.1571 164.173 92.3668 158.755 94.1641C156.142 95.0307 153.775 96.4991 151.563 98.1377C151.313 98.3233 151.058 98.5092 150.8 98.6943C143.976 103.591 139.584 110.926 139.147 119.313L138.946 123.185C138.96 124.538 138.935 125.897 138.864 127.257C136.868 146.353 124.547 162.812 106.787 170.108C91.2752 176.482 73.8761 176.482 58.3642 170.108C40.6042 162.812 28.2837 146.353 26.2871 127.257L25.874 119.313C25.437 110.926 21.0455 103.591 14.2216 98.6943C13.9635 98.5091 13.7085 98.3233 13.458 98.1377C11.2461 96.4991 8.87933 95.0307 6.26655 94.1641C0.848278 92.3668 -2.06393 86.1571 1.70015 81.8652C9.91216 72.5018 22.0713 71.341 29.8808 75.083C32.7145 76.4408 35.5496 77.7992 38.4765 78.7988L44.4619 80.8428C54.6298 84.0464 64.6658 82.7513 74.5166 79.6846C79.6393 77.115 84.9287 77.5215 90.1699 79.6846C100.536 83.9627 109.567 83.9517 120.548 80.918L120.56 80.8428L126.546 78.7988C129.473 77.7992 132.307 76.4408 135.141 75.083ZM82.3935 96.0498C74.0364 96.0498 66.4386 99.7285 60.3046 104.142C54.1499 108.57 49.2399 113.901 46.2001 117.592C44.7748 119.322 43.1641 121.086 43.164 123.729C43.1642 126.371 44.7748 128.136 46.2001 129.866C49.2399 133.557 54.1502 138.889 60.3046 143.316C66.4385 147.729 74.0366 151.408 82.3935 151.408C90.7505 151.408 98.3485 147.729 104.482 143.316C110.637 138.888 115.547 133.557 118.587 129.866C120.012 128.136 121.622 126.371 121.622 123.729C121.622 121.086 120.012 119.322 118.587 117.592C115.547 113.901 110.637 108.57 104.482 104.142C98.3485 99.7286 90.7505 96.0499 82.3935 96.0498ZM82.3935 101.378C84.9159 101.378 87.3982 101.793 89.8125 102.522C98.0134 105.697 103.93 113.835 103.93 123.52C103.929 136.018 94.0753 145.943 82.1718 145.943C70.2681 145.943 60.4133 136.018 60.413 123.52C60.413 114.485 65.561 106.796 72.9101 103.227C75.9647 102.065 79.1462 101.378 82.3935 101.378ZM82.1709 105.979C72.484 105.979 64.6311 113.832 64.6308 123.519C64.6308 133.206 72.4839 141.058 82.1709 141.059C91.8579 141.059 99.7109 133.206 99.7109 123.519C99.7106 113.832 91.8578 105.979 82.1709 105.979ZM82.1709 110.863C89.1601 110.863 94.8259 116.529 94.8261 123.519C94.8261 130.508 89.1603 136.174 82.1709 136.174C75.1815 136.174 69.5156 130.508 69.5156 123.519C69.5158 116.529 75.1817 110.863 82.1709 110.863ZM106.669 112.771C109.896 115.691 112.561 118.656 114.475 120.979C115.332 122.021 115.786 122.582 116.063 123.048C116.272 123.398 116.294 123.552 116.294 123.729C116.294 123.905 116.272 124.059 116.063 124.409C115.786 124.875 115.332 125.437 114.475 126.479C112.502 128.874 109.731 131.951 106.369 134.957C107.847 131.678 108.711 128.049 108.806 124.224L108.814 123.52C108.814 119.703 108.048 116.07 106.669 112.771ZM57.4101 113.418C56.1958 116.543 55.5283 119.951 55.5283 123.52L55.5371 124.224C55.6252 127.791 56.382 131.187 57.6816 134.288C54.6504 131.498 52.1393 128.696 50.3125 126.479C49.4547 125.437 49.0013 124.875 48.7236 124.409C48.5146 124.059 48.4931 123.905 48.4931 123.729C48.4931 123.552 48.5144 123.398 48.7236 123.048C49.0012 122.582 49.4546 122.021 50.3125 120.979C52.0846 118.828 54.4999 116.125 57.4101 113.418ZM82.1709 115.748C77.8794 115.748 74.4006 119.227 74.4003 123.519C74.4003 127.676 77.6655 131.071 81.7714 131.279L82.1709 131.29C86.3284 131.29 89.7234 128.025 89.9316 123.919L89.9423 123.519C89.9421 119.227 86.4624 115.748 82.1709 115.748ZM82.1709 120.633C83.7647 120.633 85.0573 121.925 85.0576 123.519C85.0576 125.113 83.7648 126.405 82.1709 126.405C80.577 126.405 79.2851 125.113 79.2851 123.519C79.2854 121.925 80.5771 120.633 82.1709 120.633ZM82.8007 0C91.164 0.000122131 97.9433 6.78024 97.9433 15.1436V52.8936C97.9433 54.3532 99.1272 55.5371 100.587 55.5371C102.037 55.537 103.216 54.3686 103.229 52.9189L103.527 21.7178C103.527 20.178 105.454 18.4526 106.742 18.0762C119.331 14.3975 130.898 21.2609 130.898 39.1006L131.698 71.7109C118.135 78.6341 105.085 80.0592 90.121 75.4082C84.411 72.6086 80.2969 73.1023 74.413 75.4053C59.5744 78.7387 46.9573 78.8891 33.5703 72.0049L34.3945 39.4346C34.3946 22.2725 44.4364 13.7706 58.9619 18.0762C60.2391 18.4548 62.0742 20.1751 62.0742 21.7012L62.371 52.9189C62.3849 54.3687 63.5648 55.5371 65.0146 55.5371C66.4741 55.537 67.6572 54.3531 67.6572 52.8936V15.1436C67.6572 6.78016 74.4373 0 82.8007 0Z" fill="white"/>
<path d="M214.649 147.145H236.166V50.0184H277.049V31.5182H174.429V50.0184H214.649V147.145Z" fill="white"/>
<path d="M264.412 126.002C264.412 140.537 275.005 149.622 290.894 149.622C304.301 149.622 312.743 141.694 316.218 129.966H323.336C323.667 142.85 326.812 147.145 340.384 147.145H348.991V131.287H341.211C336.908 131.287 336.246 130.461 336.246 126.332V93.1306C336.246 73.1437 323.832 62.407 301.156 62.407C278.812 62.407 264.908 74.3 263.253 86.6885L281.625 91.4788C283.777 83.0546 289.901 77.7688 301.156 77.7688C311.584 77.7688 316.218 82.2287 316.218 90.6529V93.4609C300.494 94.9476 287.915 98.086 278.481 103.041C269.046 107.832 264.412 115.595 264.412 126.002ZM316.218 113.283C316.218 127.323 307.612 134.426 297.35 134.426C289.405 134.426 284.936 130.627 284.936 124.019C284.936 113.448 296.522 108.823 316.218 106.675V113.283Z" fill="white"/>
<path d="M362.157 147.145H382.35V31.5182H362.157V147.145Z" fill="white"/>
<path d="M406.265 51.8354H427.782V31.353H406.265V51.8354ZM407.092 147.145H427.12V64.8847H407.092V147.145Z" fill="white"/>
<path d="M444.26 126.002C447.901 140.537 463.46 149.457 481.998 149.457C504.674 149.457 518.411 139.051 518.411 123.028C518.411 115.43 515.598 109.649 510.136 105.684C504.674 101.72 498.053 98.9119 490.274 97.4253L479.515 95.4431C469.584 93.4609 466.936 90.9832 466.936 86.193C466.936 80.742 471.736 76.9429 480.508 76.9429C489.943 76.9429 495.901 82.3938 498.549 89.4966L515.598 82.2287C511.791 72.1526 500.867 62.407 481.17 62.407C461.474 62.407 447.736 72.8134 447.736 88.01C447.736 103.537 457.667 109.318 474.384 112.787L485.308 114.769C494.577 116.586 497.556 119.89 497.556 125.01C497.556 130.792 492.26 134.426 482.825 134.426C469.749 134.426 464.453 127.158 462.963 119.89L444.26 126.002Z" fill="white"/>
<path d="M536.402 147.145H556.595V106.51C556.595 97.2601 557.257 89.6618 562.388 83.7153C564.871 80.742 568.678 79.2554 573.809 79.2554C583.74 79.2554 588.706 85.2019 588.706 96.9297V147.145H608.568V106.51C608.568 97.0949 609.064 89.6618 614.195 83.7153C616.678 80.742 620.65 79.2554 625.781 79.2554C635.216 79.2554 640.678 84.8716 640.678 96.9297V147.145H660.705V93.4609C660.705 73.4741 649.119 62.407 633.23 62.407C621.974 62.407 612.871 70.3357 609.395 81.7331H602.278C599.464 69.3446 590.692 62.407 579.602 62.407C567.519 62.407 560.402 70.5008 557.257 81.7331H547.823C551.299 76.9429 554.278 69.6749 554.278 64.8847H536.402V147.145Z" fill="white"/>
<path d="M679.335 126.002C679.335 140.537 689.928 149.622 705.818 149.622C719.225 149.622 727.666 141.694 731.142 129.966H738.259C738.59 142.85 741.735 147.145 755.307 147.145H763.914V131.287H756.135C751.831 131.287 751.169 130.461 751.169 126.332V93.1306C751.169 73.1437 738.756 62.407 716.08 62.407C693.735 62.407 679.832 74.3 678.177 86.6885L696.549 91.4788C698.701 83.0546 704.825 77.7688 716.08 77.7688C726.507 77.7688 731.142 82.2287 731.142 90.6529V93.4609C715.418 94.9476 702.839 98.086 693.404 103.041C683.97 107.832 679.335 115.595 679.335 126.002ZM731.142 113.283C731.142 127.323 722.535 134.426 712.273 134.426C704.328 134.426 699.859 130.627 699.859 124.019C699.859 113.448 711.445 108.823 731.142 106.675V113.283Z" fill="white"/>
<path d="M777.081 147.145H797.274V109.483C797.274 99.5726 797.936 90.9832 803.398 84.376C806.211 80.9072 810.515 79.2554 816.143 79.2554C825.577 79.2554 831.039 85.0367 831.039 96.9297V147.145H851.232V92.9654C851.232 73.9696 841.467 62.407 822.929 62.407C809.356 62.407 800.749 72.8134 797.108 83.8805H787.674C792.308 77.1081 795.618 69.6749 795.784 64.8847H777.081V147.145Z" fill="white"/>
</svg>
